<?xml version="1.0" encoding="iso-8859-1"?>
<!-- Generator: Adobe Illustrator 18.0.0, SVG Export Plug-In . SVG Version: 6.00 Build 0)  -->
<!DOCTYPE svg PUBLIC "-//W3C//DTD SVG 1.1//EN" "http://www.w3.org/Graphics/SVG/1.1/DTD/svg11.dtd">
<svg version="1.1" id="Livello_1" xmlns="http://www.w3.org/2000/svg" xmlns:xlink="http://www.w3.org/1999/xlink" x="0px" y="0px"
	 viewBox="0 0 441.72 318.96" style="enable-background:new 0 0 441.72 318.96;" xml:space="preserve">
<path style="fill-rule:evenodd;clip-rule:evenodd;" d="M250.92,217.44h0.36v47.16h-0.36V217.44z"/>
<path style="fill-rule:evenodd;clip-rule:evenodd;" d="M250.92,155.16h0.36v42.12h-0.36V155.16z"/>
<path style="fill-rule:evenodd;clip-rule:evenodd;" d="M204.84,155.16h0.36v42.12h-0.36V155.16z"/>
<path style="fill-rule:evenodd;clip-rule:evenodd;" d="M204.84,217.44h0.36v47.16h-0.36V217.44z"/>
<path style="fill-rule:evenodd;clip-rule:evenodd;" d="M250.92,155.16v-0.36h156.24v0.36H250.92z"/>
<path style="fill-rule:evenodd;clip-rule:evenodd;" d="M205.2,154.8v0.36H35.28v-0.36H205.2z"/>
<path style="fill-rule:evenodd;clip-rule:evenodd;" d="M99,77.04h-0.36V39.6H99V77.04z"/>
<path style="fill-rule:evenodd;clip-rule:evenodd;" d="M98.64,103.68H99v51.48h-0.36V103.68z"/>
<path style="fill-rule:evenodd;clip-rule:evenodd;" d="M113.76,39.24v0.36H98.64v-0.36H113.76z"/>
<path style="fill-rule:evenodd;clip-rule:evenodd;" d="M407.52,39.24v0.36H295.2v-0.36H407.52z"/>
<path style="fill-rule:evenodd;clip-rule:evenodd;" d="M203.4,39.24v0.36h-46.08v-0.36H203.4z"/>
<path style="fill-rule:evenodd;clip-rule:evenodd;" d="M177.12,264.96v-0.36h100.44v0.36H177.12z"/>
<path style="fill-rule:evenodd;clip-rule:evenodd;" d="M306.72,264.96v-0.36h100.44v0.36H306.72z"/>
<path style="fill-rule:evenodd;clip-rule:evenodd;" d="M35.64,264.96v-0.36h100.44v0.36H35.64z"/>
<path style="fill-rule:evenodd;clip-rule:evenodd;" d="M407.52,240.84h-0.36v-42.12h0.36V240.84z"/>
<path style="fill-rule:evenodd;clip-rule:evenodd;" d="M407.16,251.64h0.36v13.32h-0.36V251.64z"/>
<path style="fill-rule:evenodd;clip-rule:evenodd;" d="M407.16,154.8h0.36v18h-0.36V154.8z"/>
<path style="fill-rule:evenodd;clip-rule:evenodd;" d="M35.64,240.84h-0.36v-42.12h0.36V240.84z"/>
<path style="fill-rule:evenodd;clip-rule:evenodd;" d="M35.28,251.64h0.36v13.32h-0.36V251.64z"/>
<path style="fill-rule:evenodd;clip-rule:evenodd;" d="M35.64,155.16v-0.36H99v0.36H35.64z"/>
<path style="fill-rule:evenodd;clip-rule:evenodd;" d="M180.36,39.6h0.36v11.16h-0.36V39.6z"/>
<path style="fill-rule:evenodd;clip-rule:evenodd;" d="M180.72,154.8h-0.36V74.16h0.36V154.8z"/>
<path style="fill-rule:evenodd;clip-rule:evenodd;" d="M318.6,79.56h-0.36V39.6h0.36V79.56z"/>
<path style="fill-rule:evenodd;clip-rule:evenodd;" d="M318.6,155.16h-0.36v-51.48h0.36V155.16z"/>
<path style="fill-rule:evenodd;clip-rule:evenodd;" d="M318.6,259.56h0.36v5.04h-0.36V259.56z"/>
<path style="fill-rule:evenodd;clip-rule:evenodd;" d="M318.6,217.44h0.36v23.4h-0.36V217.44z"/>
<path style="fill-rule:evenodd;clip-rule:evenodd;" d="M123.84,259.56h0.36v5.04h-0.36V259.56z"/>
<path style="fill-rule:evenodd;clip-rule:evenodd;" d="M123.84,217.44h0.36v23.4h-0.36V217.44z"/>
<path style="fill-rule:evenodd;clip-rule:evenodd;" d="M35.64,217.44v-0.36h88.56v0.36H35.64z"/>
<path style="fill-rule:evenodd;clip-rule:evenodd;" d="M318.6,217.44v-0.36h88.56v0.36H318.6z"/>
<path style="fill-rule:evenodd;clip-rule:evenodd;" d="M35.28,154.8h0.36v18h-0.36V154.8z"/>
<path style="fill-rule:evenodd;clip-rule:evenodd;" d="M407.52,110.52h-0.36V39.24h0.36V110.52z"/>
</svg>
