<?xml version="1.0" encoding="iso-8859-1"?>
<!-- Generator: Adobe Illustrator 18.0.0, SVG Export Plug-In . SVG Version: 6.00 Build 0)  -->
<!DOCTYPE svg PUBLIC "-//W3C//DTD SVG 1.1//EN" "http://www.w3.org/Graphics/SVG/1.1/DTD/svg11.dtd">
<svg version="1.1" id="Livello_1" xmlns="http://www.w3.org/2000/svg" xmlns:xlink="http://www.w3.org/1999/xlink" x="0px" y="0px"
	 viewBox="0 0 441.72 318.96" style="enable-background:new 0 0 441.72 318.96;" xml:space="preserve">
<path style="fill-rule:evenodd;clip-rule:evenodd;" d="M250.92,155.16h0.36V264.6h-0.36V155.16z"/>
<path style="fill-rule:evenodd;clip-rule:evenodd;" d="M204.84,155.16h0.36V264.6h-0.36V155.16z"/>
<path style="fill-rule:evenodd;clip-rule:evenodd;" d="M250.92,155.16v-0.36h156.24v0.36H250.92z"/>
<path style="fill-rule:evenodd;clip-rule:evenodd;" d="M205.2,154.8v0.36H35.28v-0.36H205.2z"/>
<path style="fill-rule:evenodd;clip-rule:evenodd;" d="M99,154.8h-0.36V39.6H99V154.8z"/>
<path style="fill-rule:evenodd;clip-rule:evenodd;" d="M407.52,39.24v0.36H98.64v-0.36H407.52z"/>
<path style="fill-rule:evenodd;clip-rule:evenodd;" d="M407.52,264.96h-0.36V39.6h0.36V264.96z"/>
<path style="fill-rule:evenodd;clip-rule:evenodd;" d="M35.64,264.96v-0.36h371.88v0.36H35.64z"/>
<path style="fill-rule:evenodd;clip-rule:evenodd;" d="M35.28,155.16h0.36v109.8h-0.36V155.16z"/>
<path style="fill-rule:evenodd;clip-rule:evenodd;" d="M35.64,155.16v-0.36H99v0.36H35.64z"/>
<path style="fill-rule:evenodd;clip-rule:evenodd;" d="M180.72,154.8h-0.36V39.6h0.36V154.8z"/>
<path style="fill-rule:evenodd;clip-rule:evenodd;" d="M318.6,155.16h-0.36V39.6h0.36V155.16z"/>
<path style="fill-rule:evenodd;clip-rule:evenodd;" d="M318.6,217.44h0.36v47.16h-0.36V217.44z"/>
<path style="fill-rule:evenodd;clip-rule:evenodd;" d="M123.84,217.44h0.36v47.16h-0.36V217.44z"/>
<path style="fill-rule:evenodd;clip-rule:evenodd;" d="M35.64,217.44v-0.36h88.56v0.36H35.64z"/>
<path style="fill-rule:evenodd;clip-rule:evenodd;" d="M318.6,217.44v-0.36h88.56v0.36H318.6z"/>
</svg>
