<?xml version="1.0" encoding="iso-8859-1"?>
<!-- Generator: Adobe Illustrator 18.0.0, SVG Export Plug-In . SVG Version: 6.00 Build 0)  -->
<!DOCTYPE svg PUBLIC "-//W3C//DTD SVG 1.1//EN" "http://www.w3.org/Graphics/SVG/1.1/DTD/svg11.dtd">
<svg version="1.1" id="Livello_1" xmlns="http://www.w3.org/2000/svg" xmlns:xlink="http://www.w3.org/1999/xlink" x="0px" y="0px"
	 viewBox="0 0 441.72 318.96" style="enable-background:new 0 0 441.72 318.96;" xml:space="preserve">
<path style="fill-rule:evenodd;clip-rule:evenodd;fill:none;" d="M353.16,222.48v-0.36h54.36v0.36H353.16z"/>
<path style="fill-rule:evenodd;clip-rule:evenodd;fill:none;" d="M330.12,200.52v-0.36h23.04v0.36H330.12z"/>
<path style="fill-rule:evenodd;clip-rule:evenodd;fill:none;" d="M330.12,225v-0.36h22.68V225H330.12z"/>
<path style="fill-rule:evenodd;clip-rule:evenodd;fill:none;" d="M190.8,232.56v-0.36h32.4v0.36H190.8z"/>
<path style="fill-rule:evenodd;clip-rule:evenodd;fill:none;" d="M190.44,232.2h0.36v32.4h-0.36V232.2z"/>
<path style="fill-rule:evenodd;clip-rule:evenodd;fill:none;" d="M223.2,196.2v-0.36h106.56v0.36H223.2z"/>
<path style="fill-rule:evenodd;clip-rule:evenodd;fill:none;" d="M99,152.64v-0.36h308.52v0.36H99z"/>
<path style="fill-rule:evenodd;clip-rule:evenodd;fill:none;" d="M253.08,121.68v-0.36h154.44v0.36H253.08z"/>
<path style="fill-rule:evenodd;clip-rule:evenodd;fill:none;" d="M407.88,39.24v0.36H99v-0.36H407.88z"/>
<path style="fill-rule:evenodd;clip-rule:evenodd;fill:none;" d="M35.64,155.16v-0.36H99v0.36H35.64z"/>
<path style="fill-rule:evenodd;clip-rule:evenodd;fill:none;" d="M98.64,39.24H99V154.8h-0.36V39.24z"/>
<path style="fill-rule:evenodd;clip-rule:evenodd;fill:none;" d="M407.88,264.96h-0.36V39.6h0.36V264.96z"/>
<path style="fill-rule:evenodd;clip-rule:evenodd;fill:none;" d="M35.64,126.72h-0.36v-5.4h0.36V126.72z"/>
<path style="fill-rule:evenodd;clip-rule:evenodd;fill:none;" d="M40.32,121.68h0.36v5.04h-0.36V121.68z"/>
<path style="fill-rule:evenodd;clip-rule:evenodd;fill:none;" d="M35.64,121.68v-0.36h5.04v0.36H35.64z"/>
<path style="fill-rule:evenodd;clip-rule:evenodd;fill:none;" d="M35.28,126.72v-0.36h5.04v0.36H35.28z"/>
<path style="fill-rule:evenodd;clip-rule:evenodd;fill:none;" d="M35.64,86.4h-0.36V81h0.36V86.4z"/>
<path style="fill-rule:evenodd;clip-rule:evenodd;fill:none;" d="M40.32,81.36h0.36v5.04h-0.36V81.36z"/>
<path style="fill-rule:evenodd;clip-rule:evenodd;fill:none;" d="M35.64,81.36V81h5.04v0.36H35.64z"/>
<path style="fill-rule:evenodd;clip-rule:evenodd;fill:none;" d="M35.28,86.4v-0.36h5.04v0.36H35.28z"/>
<path style="fill-rule:evenodd;clip-rule:evenodd;fill:none;" d="M69.12,44.64h-0.36v-5.4h0.36V44.64z"/>
<path style="fill-rule:evenodd;clip-rule:evenodd;fill:none;" d="M73.8,39.6h0.36v5.04H73.8V39.6z"/>
<path style="fill-rule:evenodd;clip-rule:evenodd;fill:none;" d="M69.12,39.6v-0.36h5.04v0.36H69.12z"/>
<path style="fill-rule:evenodd;clip-rule:evenodd;fill:none;" d="M68.76,44.64v-0.36h5.04v0.36H68.76z"/>
<path style="fill-rule:evenodd;clip-rule:evenodd;fill:none;" d="M35.64,44.64h-0.36v-5.4h0.36V44.64z"/>
<path style="fill-rule:evenodd;clip-rule:evenodd;fill:none;" d="M40.32,39.6h0.36v5.04h-0.36V39.6z"/>
<path style="fill-rule:evenodd;clip-rule:evenodd;fill:none;" d="M35.64,39.6v-0.36h5.04v0.36H35.64z"/>
<path style="fill-rule:evenodd;clip-rule:evenodd;fill:none;" d="M35.28,44.64v-0.36h5.04v0.36H35.28z"/>
<path style="fill-rule:evenodd;clip-rule:evenodd;fill:none;" d="M253.44,152.28h-0.36V39.24h0.36V152.28z"/>
<path style="fill-rule:evenodd;clip-rule:evenodd;fill:none;" d="M347.76,121.68h0.36v30.6h-0.36V121.68z"/>
<path style="fill-rule:evenodd;clip-rule:evenodd;fill:none;" d="M353.16,264.6h-0.36V152.64h0.36V264.6z"/>
<path style="fill-rule:evenodd;clip-rule:evenodd;fill:none;" d="M301.32,195.84h-0.36v-43.2h0.36V195.84z"/>
<path style="fill-rule:evenodd;clip-rule:evenodd;fill:none;" d="M352.8,182.16v0.36h-22.68v-0.36H352.8z"/>
<path style="fill-rule:evenodd;clip-rule:evenodd;fill:none;" d="M295.56,152.28h-0.36V39.6h0.36V152.28z"/>
<path style="fill-rule:evenodd;clip-rule:evenodd;fill:none;" d="M330.12,264.6h-0.36V121.68h0.36V264.6z"/>
<path style="fill-rule:evenodd;clip-rule:evenodd;fill:none;" d="M35.64,264.96v-0.36h371.88v0.36H35.64z"/>
<path style="fill-rule:evenodd;clip-rule:evenodd;fill:none;" d="M35.64,264.96h-0.36V154.8h0.36V264.96z"/>
<path style="fill-rule:evenodd;clip-rule:evenodd;fill:none;" d="M223.2,264.6h-0.36V152.64h0.36V264.6z"/>
</svg>
