<?xml version="1.0" encoding="iso-8859-1"?>
<!-- Generator: Adobe Illustrator 18.0.0, SVG Export Plug-In . SVG Version: 6.00 Build 0)  -->
<!DOCTYPE svg PUBLIC "-//W3C//DTD SVG 1.1//EN" "http://www.w3.org/Graphics/SVG/1.1/DTD/svg11.dtd">
<svg version="1.1" id="Livello_1" xmlns="http://www.w3.org/2000/svg" xmlns:xlink="http://www.w3.org/1999/xlink" x="0px" y="0px"
	 viewBox="0 0 441.72 318.96" style="enable-background:new 0 0 441.72 318.96;" xml:space="preserve">
<path style="fill-rule:evenodd;clip-rule:evenodd;" d="M386.64,222.48v-0.36h20.52v0.36H386.64z"/>
<path style="fill-rule:evenodd;clip-rule:evenodd;" d="M330.12,200.52v-0.36h23.04v0.36H330.12z"/>
<path style="fill-rule:evenodd;clip-rule:evenodd;" d="M330.12,225v-0.36h22.68V225H330.12z"/>
<path style="fill-rule:evenodd;clip-rule:evenodd;" d="M204.48,232.56v-0.36h18.72v0.36H204.48z"/>
<path style="fill-rule:evenodd;clip-rule:evenodd;" d="M190.44,246.96h0.36v17.64h-0.36V246.96z"/>
<path style="fill-rule:evenodd;clip-rule:evenodd;" d="M324.72,196.2v-0.36h5.4v0.36H324.72z"/>
<path style="fill-rule:evenodd;clip-rule:evenodd;" d="M223.2,196.2v-0.36h83.16v0.36H223.2z"/>
<path style="fill-rule:evenodd;clip-rule:evenodd;" d="M329.76,152.64v-0.36h77.4v0.36H329.76z"/>
<path style="fill-rule:evenodd;clip-rule:evenodd;" d="M204.48,152.64v-0.36h96.84v0.36H204.48z"/>
<path style="fill-rule:evenodd;clip-rule:evenodd;" d="M390.24,121.68v-0.36h16.92v0.36H390.24z"/>
<path style="fill-rule:evenodd;clip-rule:evenodd;" d="M324.36,121.68v-0.36h43.92v0.36H324.36z"/>
<path style="fill-rule:evenodd;clip-rule:evenodd;" d="M253.08,121.68v-0.36h51.48v0.36H253.08z"/>
<path style="fill-rule:evenodd;clip-rule:evenodd;" d="M218.16,39.24v0.36H98.64v-0.36H218.16z"/>
<path style="fill-rule:evenodd;clip-rule:evenodd;" d="M407.52,39.24v0.36H242.64v-0.36H407.52z"/>
<path style="fill-rule:evenodd;clip-rule:evenodd;" d="M35.64,155.16v-0.36H99v0.36H35.64z"/>
<path style="fill-rule:evenodd;clip-rule:evenodd;" d="M98.64,39.24H99V154.8h-0.36V39.24z"/>
<path style="fill-rule:evenodd;clip-rule:evenodd;" d="M407.52,264.96h-0.36V39.6h0.36V264.96z"/>
<path style="fill-rule:evenodd;clip-rule:evenodd;" d="M253.44,121.68h-0.36V39.24h0.36V121.68z"/>
<path style="fill-rule:evenodd;clip-rule:evenodd;" d="M347.76,121.68h0.36v30.6h-0.36V121.68z"/>
<path style="fill-rule:evenodd;clip-rule:evenodd;" d="M353.16,205.2h-0.36v-26.64h0.36V205.2z"/>
<path style="fill-rule:evenodd;clip-rule:evenodd;" d="M353.16,264.6h-0.36v-44.28h0.36V264.6z"/>
<path style="fill-rule:evenodd;clip-rule:evenodd;" d="M300.96,178.56h0.36v17.64h-0.36V178.56z"/>
<path style="fill-rule:evenodd;clip-rule:evenodd;" d="M301.32,161.28h-0.36v-8.64h0.36V161.28z"/>
<path style="fill-rule:evenodd;clip-rule:evenodd;" d="M349.2,182.52v-0.36h3.96v0.36H349.2z"/>
<path style="fill-rule:evenodd;clip-rule:evenodd;" d="M334.08,182.16v0.36h-3.96v-0.36H334.08z"/>
<path style="fill-rule:evenodd;clip-rule:evenodd;" d="M295.56,97.92h-0.36V39.6h0.36V97.92z"/>
<path style="fill-rule:evenodd;clip-rule:evenodd;" d="M295.56,128.16h-0.36V117h0.36V128.16z"/>
<path style="fill-rule:evenodd;clip-rule:evenodd;" d="M330.12,128.16h-0.36v-6.48h0.36V128.16z"/>
<path style="fill-rule:evenodd;clip-rule:evenodd;" d="M330.12,156.96h-0.36v-9.72h0.36V156.96z"/>
<path style="fill-rule:evenodd;clip-rule:evenodd;" d="M330.12,230.04h-0.36v-51.48h0.36V230.04z"/>
<path style="fill-rule:evenodd;clip-rule:evenodd;" d="M329.76,259.2h0.36v5.4h-0.36V259.2z"/>
<path style="fill-rule:evenodd;clip-rule:evenodd;" d="M379.8,264.96v-0.36h27.72v0.36H379.8z"/>
<path style="fill-rule:evenodd;clip-rule:evenodd;" d="M160.2,264.96v-0.36h197.28v0.36H160.2z"/>
<path style="fill-rule:evenodd;clip-rule:evenodd;" d="M35.64,264.96v-0.36h104.04v0.36H35.64z"/>
<path style="fill-rule:evenodd;clip-rule:evenodd;" d="M35.64,126.72h-0.36v-5.4h0.36V126.72z"/>
<path style="fill-rule:evenodd;clip-rule:evenodd;" d="M40.32,121.68h0.36v5.04h-0.36V121.68z"/>
<path style="fill-rule:evenodd;clip-rule:evenodd;" d="M35.64,121.68v-0.36h5.04v0.36H35.64z"/>
<path style="fill-rule:evenodd;clip-rule:evenodd;" d="M35.28,126.72v-0.36h5.04v0.36H35.28z"/>
<path style="fill-rule:evenodd;clip-rule:evenodd;" d="M35.64,86.4h-0.36V81h0.36V86.4z"/>
<path style="fill-rule:evenodd;clip-rule:evenodd;" d="M40.32,81.36h0.36v5.04h-0.36V81.36z"/>
<path style="fill-rule:evenodd;clip-rule:evenodd;" d="M35.64,81.36V81h5.04v0.36H35.64z"/>
<path style="fill-rule:evenodd;clip-rule:evenodd;" d="M35.28,86.4v-0.36h5.04v0.36H35.28z"/>
<path style="fill-rule:evenodd;clip-rule:evenodd;" d="M69.12,44.64h-0.36v-5.4h0.36V44.64z"/>
<path style="fill-rule:evenodd;clip-rule:evenodd;" d="M73.8,39.6h0.36v5.04H73.8V39.6z"/>
<path style="fill-rule:evenodd;clip-rule:evenodd;" d="M69.12,39.6v-0.36h5.04v0.36H69.12z"/>
<path style="fill-rule:evenodd;clip-rule:evenodd;" d="M68.76,44.64v-0.36h5.04v0.36H68.76z"/>
<path style="fill-rule:evenodd;clip-rule:evenodd;" d="M35.64,44.64h-0.36v-5.4h0.36V44.64z"/>
<path style="fill-rule:evenodd;clip-rule:evenodd;" d="M40.32,39.6h0.36v5.04h-0.36V39.6z"/>
<path style="fill-rule:evenodd;clip-rule:evenodd;" d="M35.64,39.6v-0.36h5.04v0.36H35.64z"/>
<path style="fill-rule:evenodd;clip-rule:evenodd;" d="M35.28,44.64v-0.36h5.04v0.36H35.28z"/>
<path style="fill-rule:evenodd;clip-rule:evenodd;" d="M35.64,126.72h-0.36v-5.4h0.36V126.72z"/>
<path style="fill-rule:evenodd;clip-rule:evenodd;" d="M40.32,121.68h0.36v5.04h-0.36V121.68z"/>
<path style="fill-rule:evenodd;clip-rule:evenodd;" d="M35.64,121.68v-0.36h5.04v0.36H35.64z"/>
<path style="fill-rule:evenodd;clip-rule:evenodd;" d="M35.28,126.72v-0.36h5.04v0.36H35.28z"/>
<path style="fill-rule:evenodd;clip-rule:evenodd;" d="M35.64,86.4h-0.36V81h0.36V86.4z"/>
<path style="fill-rule:evenodd;clip-rule:evenodd;" d="M40.32,81.36h0.36v5.04h-0.36V81.36z"/>
<path style="fill-rule:evenodd;clip-rule:evenodd;" d="M35.64,81.36V81h5.04v0.36H35.64z"/>
<path style="fill-rule:evenodd;clip-rule:evenodd;" d="M35.28,86.4v-0.36h5.04v0.36H35.28z"/>
<path style="fill-rule:evenodd;clip-rule:evenodd;" d="M69.12,44.64h-0.36v-5.4h0.36V44.64z"/>
<path style="fill-rule:evenodd;clip-rule:evenodd;" d="M73.8,39.6h0.36v5.04H73.8V39.6z"/>
<path style="fill-rule:evenodd;clip-rule:evenodd;" d="M69.12,39.6v-0.36h5.04v0.36H69.12z"/>
<path style="fill-rule:evenodd;clip-rule:evenodd;" d="M68.76,44.64v-0.36h5.04v0.36H68.76z"/>
<path style="fill-rule:evenodd;clip-rule:evenodd;" d="M35.64,44.64h-0.36v-5.4h0.36V44.64z"/>
<path style="fill-rule:evenodd;clip-rule:evenodd;" d="M35.64,264.96h-0.36V154.8h0.36V264.96z"/>
<path style="fill-rule:evenodd;clip-rule:evenodd;" d="M223.2,264.6h-0.36V152.64h0.36V264.6z"/>
<path style="fill-rule:evenodd;clip-rule:evenodd;" d="M118.44,152.28v0.36h-19.8v-0.36H118.44z"/>
<path style="fill-rule:evenodd;clip-rule:evenodd;" d="M40.32,39.6h0.36v5.04h-0.36V39.6z"/>
<path style="fill-rule:evenodd;clip-rule:evenodd;" d="M35.64,39.6v-0.36h5.04v0.36H35.64z"/>
<path style="fill-rule:evenodd;clip-rule:evenodd;" d="M35.28,44.64v-0.36h5.04v0.36H35.28z"/>
</svg>
