<?xml version="1.0" encoding="iso-8859-1"?>
<!-- Generator: Adobe Illustrator 18.0.0, SVG Export Plug-In . SVG Version: 6.00 Build 0)  -->
<!DOCTYPE svg PUBLIC "-//W3C//DTD SVG 1.1//EN" "http://www.w3.org/Graphics/SVG/1.1/DTD/svg11.dtd">
<svg version="1.1" xmlns="http://www.w3.org/2000/svg" xmlns:xlink="http://www.w3.org/1999/xlink" x="0px" y="0px"
	 viewBox="0 0 2776.089 3401.57" style="enable-background:new 0 0 2776.089 3401.57;" xml:space="preserve">
<g id="Livello_5">
</g>
<g id="Livello_4">
</g>
<g id="Livello_3">
</g>
<g id="casa1">
	<line style="fill:none;stroke:#000000;stroke-miterlimit:10;" x1="1106.125" y1="830.614" x2="1339.427" y2="830.614"/>
	<line style="fill:none;stroke:#000000;stroke-miterlimit:10;" x1="1106.125" y1="1205.791" x2="1339.427" y2="1205.791"/>
	<line style="fill:none;stroke:#000000;stroke-miterlimit:10;" x1="1339.427" y1="830.614" x2="1339.427" y2="1205.791"/>
	<line style="fill:none;stroke:#000000;stroke-miterlimit:10;" x1="1440.106" y1="830.614" x2="1440.106" y2="1205.791"/>
	<line style="fill:none;stroke:#000000;stroke-miterlimit:10;" x1="1440.106" y1="830.614" x2="1673.409" y2="830.614"/>
	<line style="fill:none;stroke:#000000;stroke-miterlimit:10;" x1="1440.106" y1="1205.791" x2="1673.409" y2="1205.791"/>
	<line style="fill:none;stroke:#000000;stroke-miterlimit:10;" x1="1106.125" y1="830.614" x2="1106.125" y2="1205.791"/>
	<line style="fill:none;stroke:#000000;stroke-miterlimit:10;" x1="1673.409" y1="830.614" x2="1673.409" y2="1205.791"/>
</g>
<g id="casa2">
	<line style="fill:none;stroke:#000000;stroke-miterlimit:10;" x1="1106.125" y1="1513.197" x2="1339.427" y2="1513.197"/>
	<line style="fill:none;stroke:#000000;stroke-miterlimit:10;" x1="1106.125" y1="1888.373" x2="1339.427" y2="1888.373"/>
	<line style="fill:none;stroke:#000000;stroke-miterlimit:10;" x1="1339.427" y1="1513.197" x2="1339.427" y2="1888.373"/>
	<line style="fill:none;stroke:#000000;stroke-miterlimit:10;" x1="1106.125" y1="1513.197" x2="1106.125" y2="1888.373"/>
	<line style="fill:none;stroke:#000000;stroke-miterlimit:10;" x1="1440.106" y1="1513.912" x2="1440.106" y2="1889.088"/>
	<line style="fill:none;stroke:#000000;stroke-miterlimit:10;" x1="1440.106" y1="1513.912" x2="1673.409" y2="1513.912"/>
	<line style="fill:none;stroke:#000000;stroke-miterlimit:10;" x1="1440.106" y1="1889.088" x2="1673.409" y2="1889.088"/>
	<line style="fill:none;stroke:#000000;stroke-miterlimit:10;" x1="1673.409" y1="1513.912" x2="1673.409" y2="1889.088"/>
</g>
<g id="casa3">
	<line style="fill:none;stroke:#000000;stroke-miterlimit:10;" x1="1106.125" y1="2187.013" x2="1339.427" y2="2187.013"/>
	<line style="fill:none;stroke:#000000;stroke-miterlimit:10;" x1="1106.125" y1="2562.19" x2="1339.427" y2="2562.19"/>
	<line style="fill:none;stroke:#000000;stroke-miterlimit:10;" x1="1339.427" y1="2187.013" x2="1339.427" y2="2562.19"/>
	<line style="fill:none;stroke:#000000;stroke-miterlimit:10;" x1="1106.125" y1="2187.013" x2="1106.125" y2="2562.19"/>
	<line style="fill:none;stroke:#000000;stroke-miterlimit:10;" x1="1440.106" y1="2187.013" x2="1440.106" y2="2562.19"/>
	<line style="fill:none;stroke:#000000;stroke-miterlimit:10;" x1="1440.106" y1="2187.013" x2="1673.409" y2="2187.013"/>
	<line style="fill:none;stroke:#000000;stroke-miterlimit:10;" x1="1440.106" y1="2562.19" x2="1673.409" y2="2562.19"/>
	<line style="fill:none;stroke:#000000;stroke-miterlimit:10;" x1="1673.409" y1="2187.013" x2="1673.409" y2="2562.19"/>
</g>
</svg>
