<?xml version="1.0" encoding="iso-8859-1"?>
<!-- Generator: Adobe Illustrator 18.0.0, SVG Export Plug-In . SVG Version: 6.00 Build 0)  -->
<!DOCTYPE svg PUBLIC "-//W3C//DTD SVG 1.1//EN" "http://www.w3.org/Graphics/SVG/1.1/DTD/svg11.dtd">
<svg version="1.1" id="Livello_1" xmlns="http://www.w3.org/2000/svg" xmlns:xlink="http://www.w3.org/1999/xlink" x="0px" y="0px"
	 viewBox="0 0 441.72 318.96" style="enable-background:new 0 0 441.72 318.96;" xml:space="preserve">
<path style="fill-rule:evenodd;clip-rule:evenodd;" d="M390.24,119.88h15.12v3.6h-15.12V119.88z"/>
<path style="fill-rule:evenodd;clip-rule:evenodd;" d="M331.92,149.76h73.44v5.04h-73.44V149.76z"/>
<path style="fill-rule:evenodd;clip-rule:evenodd;" d="M386.64,220.68h18.72v3.6h-18.72V220.68z"/>
<path style="fill-rule:evenodd;clip-rule:evenodd;" d="M331.92,198.72h19.44v3.6h-19.44V198.72z"/>
<path style="fill-rule:evenodd;clip-rule:evenodd;" d="M331.92,222.84h19.44v3.6h-19.44V222.84z"/>
<path style="fill-rule:evenodd;clip-rule:evenodd;" d="M204.48,230.76h16.92v3.6h-16.92V230.76z"/>
<path style="fill-rule:evenodd;clip-rule:evenodd;" d="M221.4,194.4h81.72v3.6H221.4V194.4z"/>
<path style="fill-rule:evenodd;clip-rule:evenodd;" d="M379.8,262.8h25.56v3.96H379.8V262.8z"/>
<path style="fill-rule:evenodd;clip-rule:evenodd;" d="M288.72,262.8h68.76v3.96h-68.76V262.8z"/>
<path style="fill-rule:evenodd;clip-rule:evenodd;" d="M160.2,262.8h97.2v3.96h-97.2V262.8z"/>
<path style="fill-rule:evenodd;clip-rule:evenodd;" d="M99,262.8h40.68v3.96H99V262.8z"/>
<path style="fill-rule:evenodd;clip-rule:evenodd;" d="M37.44,262.8h17.28v3.96H37.44V262.8z"/>
<path style="fill-rule:evenodd;clip-rule:evenodd;" d="M204.48,150.12h98.64v5.04h-98.64V150.12z"/>
<path style="fill-rule:evenodd;clip-rule:evenodd;" d="M324.36,119.88h43.92v3.6h-43.92V119.88z"/>
<path style="fill-rule:evenodd;clip-rule:evenodd;" d="M251.28,119.88h53.28v3.6h-53.28V119.88z"/>
<path style="fill-rule:evenodd;clip-rule:evenodd;" d="M242.64,37.08h83.88v5.04h-83.88V37.08z"/>
<path style="fill-rule:evenodd;clip-rule:evenodd;" d="M377.64,37.08h27.72v5.04h-27.72V37.08z"/>
<path style="fill-rule:evenodd;clip-rule:evenodd;" d="M177.12,37.08h41.04v5.04h-41.04V37.08z"/>
<path style="fill-rule:evenodd;clip-rule:evenodd;" d="M97.2,37.08h36v5.04h-36V37.08z"/>
<path style="fill-rule:evenodd;clip-rule:evenodd;" d="M100.8,150.12h17.28v6.84H100.8V150.12z"/>
<path style="fill-rule:evenodd;clip-rule:evenodd;" d="M37.44,153.36h63.36v3.6H37.44V153.36z"/>
<path style="fill-rule:evenodd;clip-rule:evenodd;" d="M97.2,128.16h3.6v25.2h-3.6V128.16z"/>
<path style="fill-rule:evenodd;clip-rule:evenodd;" d="M97.2,42.12h3.6v19.44h-3.6V42.12z"/>
<path style="fill-rule:evenodd;clip-rule:evenodd;" d="M405.36,37.08h4.32v229.68h-4.32V37.08z"/>
<path style="fill-rule:evenodd;clip-rule:evenodd;" d="M251.28,42.12h4.32v77.76h-4.32V42.12z"/>
<path style="fill-rule:evenodd;clip-rule:evenodd;" d="M293.76,42.12h3.6v55.8h-3.6V42.12z"/>
<path style="fill-rule:evenodd;clip-rule:evenodd;" d="M346.32,123.48h3.6v26.28h-3.6V123.48z"/>
<path style="fill-rule:evenodd;clip-rule:evenodd;" d="M351.36,178.56h3.6v24.12h-3.6V178.56z"/>
<path style="fill-rule:evenodd;clip-rule:evenodd;" d="M351.36,220.32h3.6v42.48h-3.6V220.32z"/>
<path style="fill-rule:evenodd;clip-rule:evenodd;" d="M299.52,155.16h3.6v6.12h-3.6V155.16z"/>
<path style="fill-rule:evenodd;clip-rule:evenodd;" d="M328.32,147.24h3.6v9.72h-3.6V147.24z"/>
<path style="fill-rule:evenodd;clip-rule:evenodd;" d="M349.2,180.72h2.16v3.6h-2.16V180.72z"/>
<path style="fill-rule:evenodd;clip-rule:evenodd;" d="M331.92,180.72h2.16v3.6h-2.16V180.72z"/>
<path style="fill-rule:evenodd;clip-rule:evenodd;" d="M328.32,226.44h3.6v3.6h-3.6V226.44z"/>
<path style="fill-rule:evenodd;clip-rule:evenodd;" d="M351.36,202.68h3.6v2.52h-3.6V202.68z"/>
<path style="fill-rule:evenodd;clip-rule:evenodd;" d="M328.32,259.2h3.6v3.6h-3.6V259.2z"/>
<path style="fill-rule:evenodd;clip-rule:evenodd;" d="M324.72,194.4h3.6v3.6h-3.6V194.4z"/>
<path style="fill-rule:evenodd;clip-rule:evenodd;" d="M302.76,194.4h3.6v3.6h-3.6V194.4z"/>
<path style="fill-rule:evenodd;clip-rule:evenodd;" d="M293.76,117h3.6v2.88h-3.6V117z"/>
<path style="fill-rule:evenodd;clip-rule:evenodd;" d="M328.32,123.48h3.6v4.68h-3.6V123.48z"/>
<path style="fill-rule:evenodd;clip-rule:evenodd;" d="M328.32,178.56h3.6v47.88h-3.6V178.56z"/>
<path style="fill-rule:evenodd;clip-rule:evenodd;" d="M328.32,178.56h3.6v47.88h-3.6V178.56z"/>
<path style="fill-rule:evenodd;clip-rule:evenodd;" d="M328.32,178.56h3.6v47.88h-3.6V178.56z"/>
<path style="fill-rule:evenodd;clip-rule:evenodd;" d="M328.32,178.56h3.6v47.88h-3.6V178.56z"/>
<path style="fill-rule:evenodd;clip-rule:evenodd;" d="M328.32,178.56h3.6v47.88h-3.6V178.56z"/>
<path style="fill-rule:evenodd;clip-rule:evenodd;" d="M189,246.96h3.6v15.84H189V246.96z"/>
<path style="fill-rule:evenodd;clip-rule:evenodd;" d="M299.52,178.56h3.6v15.84h-3.6V178.56z"/>
<path style="fill-rule:evenodd;clip-rule:evenodd;" d="M33.84,241.56h3.6v25.2h-3.6V241.56z"/>
<path style="fill-rule:evenodd;clip-rule:evenodd;" d="M33.84,153.36h3.6v25.2h-3.6V153.36z"/>
<path style="fill-rule:evenodd;clip-rule:evenodd;" d="M221.4,155.16h3.6V262.8h-3.6V155.16z"/>
</svg>
