<?xml version="1.0" encoding="iso-8859-1"?>
<!-- Generator: Adobe Illustrator 18.0.0, SVG Export Plug-In . SVG Version: 6.00 Build 0)  -->
<!DOCTYPE svg PUBLIC "-//W3C//DTD SVG 1.1//EN" "http://www.w3.org/Graphics/SVG/1.1/DTD/svg11.dtd">
<svg version="1.1" id="Livello_1" xmlns="http://www.w3.org/2000/svg" xmlns:xlink="http://www.w3.org/1999/xlink" x="0px" y="0px"
	 viewBox="0 0 441.72 318.96" style="enable-background:new 0 0 441.72 318.96;" xml:space="preserve">
<path style="fill-rule:evenodd;clip-rule:evenodd;" d="M390.24,119.88h15.12v3.6h-15.12V119.88z"/>
<path style="fill-rule:evenodd;clip-rule:evenodd;" d="M331.92,149.76h73.44v5.04h-73.44V149.76z"/>
<path style="fill-rule:evenodd;clip-rule:evenodd;" d="M354.96,220.68h50.4v3.6h-50.4V220.68z"/>
<path style="fill-rule:evenodd;clip-rule:evenodd;" d="M331.92,198.72h19.44v3.6h-19.44V198.72z"/>
<path style="fill-rule:evenodd;clip-rule:evenodd;" d="M331.92,222.84h19.44v3.6h-19.44V222.84z"/>
<path style="fill-rule:evenodd;clip-rule:evenodd;" d="M204.48,230.76h16.92v3.6h-16.92V230.76z"/>
<path style="fill-rule:evenodd;clip-rule:evenodd;" d="M221.4,194.4h81.72v3.6H221.4V194.4z"/>
<path style="fill-rule:evenodd;clip-rule:evenodd;" d="M357.48,262.8h47.88v3.96h-47.88V262.8z"/>
<path style="fill-rule:evenodd;clip-rule:evenodd;" d="M37.44,262.8h320.04v3.96H37.44V262.8z"/>
<path style="fill-rule:evenodd;clip-rule:evenodd;" d="M118.08,150.12h185.04v5.04H118.08V150.12z"/>
<path style="fill-rule:evenodd;clip-rule:evenodd;" d="M324.36,119.88h65.88v3.6h-65.88V119.88z"/>
<path style="fill-rule:evenodd;clip-rule:evenodd;" d="M251.28,119.88h73.08v3.6h-73.08V119.88z"/>
<path style="fill-rule:evenodd;clip-rule:evenodd;" d="M242.64,37.08h162.72v5.04H242.64V37.08z"/>
<path style="fill-rule:evenodd;clip-rule:evenodd;" d="M97.2,37.08h145.44v5.04H97.2V37.08z"/>
<path style="fill-rule:evenodd;clip-rule:evenodd;" d="M100.8,150.12h17.28v6.84H100.8V150.12z"/>
<path style="fill-rule:evenodd;clip-rule:evenodd;" d="M37.44,153.36h63.36v3.6H37.44V153.36z"/>
<path style="fill-rule:evenodd;clip-rule:evenodd;" d="M97.2,42.12h3.6v111.24h-3.6V42.12z"/>
<path style="fill-rule:evenodd;clip-rule:evenodd;" d="M405.36,37.08h4.32v229.68h-4.32V37.08z"/>
<path style="fill-rule:evenodd;clip-rule:evenodd;" d="M251.28,42.12h4.32v77.76h-4.32V42.12z"/>
<path style="fill-rule:evenodd;clip-rule:evenodd;" d="M293.76,42.12h3.6v55.8h-3.6V42.12z"/>
<path style="fill-rule:evenodd;clip-rule:evenodd;" d="M346.32,123.48h3.6v26.28h-3.6V123.48z"/>
<path style="fill-rule:evenodd;clip-rule:evenodd;" d="M351.36,178.56h3.6v24.12h-3.6V178.56z"/>
<path style="fill-rule:evenodd;clip-rule:evenodd;" d="M351.36,204.12h3.6v59.04h-3.6V204.12z"/>
<path style="fill-rule:evenodd;clip-rule:evenodd;" d="M299.52,155.16h3.6v6.12h-3.6V155.16z"/>
<path style="fill-rule:evenodd;clip-rule:evenodd;" d="M328.32,128.16h3.6v50.4h-3.6V128.16z"/>
<path style="fill-rule:evenodd;clip-rule:evenodd;" d="M349.2,180.72h2.16v3.6h-2.16V180.72z"/>
<path style="fill-rule:evenodd;clip-rule:evenodd;" d="M331.92,180.72h17.28v3.6h-17.28V180.72z"/>
<path style="fill-rule:evenodd;clip-rule:evenodd;" d="M328.32,226.44h3.6v3.6h-3.6V226.44z"/>
<path style="fill-rule:evenodd;clip-rule:evenodd;" d="M351.36,202.68h3.6v2.52h-3.6V202.68z"/>
<path style="fill-rule:evenodd;clip-rule:evenodd;" d="M328.32,230.04h3.6v32.76h-3.6V230.04z"/>
<path style="fill-rule:evenodd;clip-rule:evenodd;" d="M306.36,194.4h21.96v3.6h-21.96V194.4z"/>
<path style="fill-rule:evenodd;clip-rule:evenodd;" d="M302.76,194.4h3.6v3.6h-3.6V194.4z"/>
<path style="fill-rule:evenodd;clip-rule:evenodd;" d="M293.76,97.92h3.6v22.32h-3.6V97.92z"/>
<path style="fill-rule:evenodd;clip-rule:evenodd;" d="M328.32,123.48h3.6v4.68h-3.6V123.48z"/>
<path style="fill-rule:evenodd;clip-rule:evenodd;" d="M328.32,178.56h3.6v47.88h-3.6V178.56z"/>
<path style="fill-rule:evenodd;clip-rule:evenodd;" d="M328.32,178.56h3.6v47.88h-3.6V178.56z"/>
<path style="fill-rule:evenodd;clip-rule:evenodd;" d="M328.32,178.56h3.6v47.88h-3.6V178.56z"/>
<path style="fill-rule:evenodd;clip-rule:evenodd;" d="M328.32,178.56h3.6v47.88h-3.6V178.56z"/>
<path style="fill-rule:evenodd;clip-rule:evenodd;" d="M328.32,178.56h3.6v47.88h-3.6V178.56z"/>
<path style="fill-rule:evenodd;clip-rule:evenodd;" d="M189,246.96h3.6v15.84H189V246.96z"/>
<path style="fill-rule:evenodd;clip-rule:evenodd;" d="M299.52,161.28h3.6v33.12h-3.6V161.28z"/>
<path style="fill-rule:evenodd;clip-rule:evenodd;" d="M33.84,153.36h3.6v113.4h-3.6V153.36z"/>
<path style="fill-rule:evenodd;clip-rule:evenodd;" d="M221.4,155.16h3.6V262.8h-3.6V155.16z"/>
</svg>
