<?xml version="1.0" encoding="iso-8859-1"?>
<!-- Generator: Adobe Illustrator 18.0.0, SVG Export Plug-In . SVG Version: 6.00 Build 0)  -->
<!DOCTYPE svg PUBLIC "-//W3C//DTD SVG 1.1//EN" "http://www.w3.org/Graphics/SVG/1.1/DTD/svg11.dtd">
<svg version="1.1" id="Livello_3" xmlns="http://www.w3.org/2000/svg" xmlns:xlink="http://www.w3.org/1999/xlink" x="0px" y="0px"
	 viewBox="0 0 2776.089 3401.57" style="enable-background:new 0 0 2776.089 3401.57;" xml:space="preserve">
<line style="fill:none;stroke:#000000;stroke-miterlimit:10;" x1="1443.109" y1="2795.815" x2="2760.959" y2="2795.815"/>
<line style="fill:none;stroke:#000000;stroke-miterlimit:10;" x1="16.507" y1="2796.471" x2="1334.386" y2="2796.471"/>
<line style="fill:none;stroke:#000000;stroke-miterlimit:10;" x1="1334.386" y1="3369.901" x2="1443.109" y2="3369.901"/>
<line style="fill:none;stroke:#000000;stroke-miterlimit:10;" x1="1334.64" y1="593.643" x2="1334.64" y2="0"/>
<line style="fill:none;stroke:#000000;stroke-miterlimit:10;" x1="1443.363" y1="593.674" x2="1443.363" y2="0"/>
<line style="fill:none;stroke:#000000;stroke-miterlimit:10;" x1="1443.363" y1="593.674" x2="2760.959" y2="593.674"/>
<line style="fill:none;stroke:#000000;stroke-miterlimit:10;" x1="1334.64" y1="593.643" x2="16.507" y2="593.643"/>
<line style="fill:none;stroke:#000000;stroke-miterlimit:10;" x1="1334.64" y1="0" x2="1443.363" y2="0"/>
<line style="fill:none;stroke:#000000;stroke-miterlimit:10;" x1="16.507" y1="2658.555" x2="2760.959" y2="2658.555"/>
<line style="fill:none;stroke:#000000;stroke-miterlimit:10;" x1="1334.386" y1="2796.471" x2="1334.386" y2="3369.901"/>
<line style="fill:none;stroke:#000000;stroke-miterlimit:10;" x1="1443.109" y1="2795.815" x2="1443.109" y2="3369.901"/>
<line style="fill:none;stroke:#000000;stroke-miterlimit:10;" x1="768.323" y1="981.767" x2="768.323" y2="1130.71"/>
<line style="fill:none;stroke:#000000;stroke-miterlimit:10;" x1="768.323" y1="1243.967" x2="768.323" y2="1979.06"/>
<line style="fill:none;stroke:#000000;stroke-miterlimit:10;" x1="768.323" y1="2092.317" x2="768.323" y2="2403.337"/>
<line style="fill:none;stroke:#000000;stroke-miterlimit:10;" x1="0" y1="1979.06" x2="0" y2="2092.317"/>
<line style="fill:none;stroke:#000000;stroke-miterlimit:10;" x1="0" y1="1130.71" x2="0" y2="1243.967"/>
<line style="fill:none;stroke:#000000;stroke-miterlimit:10;" x1="1036.369" y1="981.767" x2="877.046" y2="981.767"/>
<line style="fill:none;stroke:#000000;stroke-miterlimit:10;" x1="1036.369" y1="1046.388" x2="877.047" y2="1046.388"/>
<line style="fill:none;stroke:#000000;stroke-miterlimit:10;" x1="1036.369" y1="1674.443" x2="877.046" y2="1674.443"/>
<line style="fill:none;stroke:#000000;stroke-miterlimit:10;" x1="1036.369" y1="1723.832" x2="879.085" y2="1723.832"/>
<line style="fill:none;stroke:#000000;stroke-miterlimit:10;" x1="1038.559" y1="2339.693" x2="879.085" y2="2339.693"/>
<line style="fill:none;stroke:#000000;stroke-miterlimit:10;" x1="879.085" y1="1723.832" x2="879.085" y2="2339.693"/>
<line style="fill:none;stroke:#000000;stroke-miterlimit:10;" x1="877.047" y1="1046.388" x2="877.047" y2="1674.443"/>
<line style="fill:none;stroke:#000000;stroke-miterlimit:10;" x1="1036.369" y1="981.767" x2="1036.369" y2="1046.388"/>
<line style="fill:none;stroke:#000000;stroke-miterlimit:10;" x1="1038.408" y1="2339.693" x2="1038.459" y2="2403.336"/>
<line style="fill:none;stroke:#000000;stroke-miterlimit:10;" x1="1036.369" y1="1674.443" x2="1036.369" y2="1723.832"/>
<line style="fill:none;stroke:#000000;stroke-miterlimit:10;" x1="768.323" y1="1243.967" x2="0" y2="1243.967"/>
<line style="fill:none;stroke:#000000;stroke-miterlimit:10;" x1="768.323" y1="1130.71" x2="0" y2="1130.71"/>
<line style="fill:none;stroke:#000000;stroke-miterlimit:10;" x1="768.323" y1="2092.317" x2="0" y2="2092.317"/>
<line style="fill:none;stroke:#000000;stroke-miterlimit:10;" x1="768.323" y1="1979.06" x2="0" y2="1979.06"/>
<line style="fill:none;stroke:#000000;stroke-miterlimit:10;" x1="1038.408" y1="2403.337" x2="877.046" y2="2403.337"/>
<line style="fill:none;stroke:#000000;stroke-miterlimit:10;" x1="2007.766" y1="988.352" x2="2007.766" y2="1137.295"/>
<line style="fill:none;stroke:#000000;stroke-miterlimit:10;" x1="2007.766" y1="1250.553" x2="2007.766" y2="1985.645"/>
<line style="fill:none;stroke:#000000;stroke-miterlimit:10;" x1="2007.766" y1="2098.903" x2="2007.766" y2="2409.923"/>
<line style="fill:none;stroke:#000000;stroke-miterlimit:10;" x1="2776.089" y1="1985.645" x2="2776.089" y2="2098.903"/>
<line style="fill:none;stroke:#000000;stroke-miterlimit:10;" x1="2776.089" y1="1137.295" x2="2776.089" y2="1250.553"/>
<line style="fill:none;stroke:#000000;stroke-miterlimit:10;" x1="1739.721" y1="988.352" x2="1899.043" y2="988.352"/>
<line style="fill:none;stroke:#000000;stroke-miterlimit:10;" x1="1739.721" y1="1052.973" x2="1899.043" y2="1052.973"/>
<line style="fill:none;stroke:#000000;stroke-miterlimit:10;" x1="1739.721" y1="1681.029" x2="1899.043" y2="1681.029"/>
<line style="fill:none;stroke:#000000;stroke-miterlimit:10;" x1="1739.721" y1="1730.418" x2="1897.004" y2="1730.418"/>
<line style="fill:none;stroke:#000000;stroke-miterlimit:10;" x1="1737.53" y1="2346.278" x2="1897.004" y2="2346.278"/>
<line style="fill:none;stroke:#000000;stroke-miterlimit:10;" x1="1897.004" y1="1730.418" x2="1897.004" y2="2346.278"/>
<line style="fill:none;stroke:#000000;stroke-miterlimit:10;" x1="1899.043" y1="1052.973" x2="1899.043" y2="1681.029"/>
<line style="fill:none;stroke:#000000;stroke-miterlimit:10;" x1="1739.721" y1="988.352" x2="1739.721" y2="1052.973"/>
<line style="fill:none;stroke:#000000;stroke-miterlimit:10;" x1="1737.681" y1="2346.278" x2="1737.63" y2="2409.922"/>
<line style="fill:none;stroke:#000000;stroke-miterlimit:10;" x1="1739.721" y1="1681.029" x2="1739.721" y2="1730.418"/>
<line style="fill:none;stroke:#000000;stroke-miterlimit:10;" x1="2007.766" y1="1250.553" x2="2776.089" y2="1250.553"/>
<line style="fill:none;stroke:#000000;stroke-miterlimit:10;" x1="2007.766" y1="1137.295" x2="2776.089" y2="1137.295"/>
<line style="fill:none;stroke:#000000;stroke-miterlimit:10;" x1="2007.766" y1="2098.903" x2="2776.089" y2="2098.903"/>
<line style="fill:none;stroke:#000000;stroke-miterlimit:10;" x1="2007.766" y1="1985.645" x2="2776.089" y2="1985.645"/>
<line style="fill:none;stroke:#000000;stroke-miterlimit:10;" x1="1737.681" y1="2409.923" x2="1899.043" y2="2409.923"/>
<line style="fill:none;stroke:#000000;stroke-miterlimit:10;" x1="2760.959" y1="730.57" x2="16.507" y2="730.57"/>
<line style="fill:none;stroke:#000000;stroke-miterlimit:10;" x1="16.507" y1="593.643" x2="16.507" y2="730.57"/>
<line style="fill:none;stroke:#000000;stroke-miterlimit:10;" x1="2760.959" y1="593.674" x2="2760.959" y2="730.57"/>
<line style="fill:none;stroke:#000000;stroke-miterlimit:10;" x1="2760.959" y1="2658.555" x2="2760.959" y2="2795.815"/>
<line style="fill:none;stroke:#000000;stroke-miterlimit:10;" x1="16.507" y1="2658.555" x2="16.507" y2="2796.471"/>
</svg>
