<?xml version="1.0" encoding="iso-8859-1"?>
<!-- Generator: Adobe Illustrator 18.0.0, SVG Export Plug-In . SVG Version: 6.00 Build 0)  -->
<!DOCTYPE svg PUBLIC "-//W3C//DTD SVG 1.1//EN" "http://www.w3.org/Graphics/SVG/1.1/DTD/svg11.dtd">
<svg version="1.1" xmlns="http://www.w3.org/2000/svg" xmlns:xlink="http://www.w3.org/1999/xlink" x="0px" y="0px"
	 viewBox="0 0 2776.089 3401.57" style="enable-background:new 0 0 2776.089 3401.57;" xml:space="preserve">
<g id="Livello_5">
	<line style="fill:none;stroke:#000000;stroke-miterlimit:10;" x1="880.49" y1="730.524" x2="1899.043" y2="730.524"/>
	<line style="fill:none;stroke:#000000;stroke-miterlimit:10;" x1="880.49" y1="2658.28" x2="1897.004" y2="2658.28"/>
	<line style="fill:none;stroke:#000000;stroke-miterlimit:10;" x1="880.49" y1="730.524" x2="880.49" y2="984.129"/>
	<line style="fill:none;stroke:#000000;stroke-miterlimit:10;" x1="880.49" y1="1669.707" x2="1039.812" y2="1669.707"/>
	<line style="fill:none;stroke:#000000;stroke-miterlimit:10;" x1="880.49" y1="1719.097" x2="1039.812" y2="1719.097"/>
	<line style="fill:none;stroke:#000000;stroke-miterlimit:10;" x1="1739.721" y1="1676.805" x2="1899.043" y2="1676.805"/>
	<line style="fill:none;stroke:#000000;stroke-miterlimit:10;" x1="1739.721" y1="1726.195" x2="1897.004" y2="1726.195"/>
	<line style="fill:none;stroke:#000000;stroke-miterlimit:10;" x1="1737.698" y1="2349.907" x2="1897.004" y2="2349.907"/>
	<line style="fill:none;stroke:#000000;stroke-miterlimit:10;" x1="1737.646" y1="2399.296" x2="1897.004" y2="2399.296"/>
	<line style="fill:none;stroke:#000000;stroke-miterlimit:10;" x1="880.49" y1="1033.519" x2="880.49" y2="1669.707"/>
	<line style="fill:none;stroke:#000000;stroke-miterlimit:10;" x1="880.49" y1="1719.097" x2="880.49" y2="2349.907"/>
	<line style="fill:none;stroke:#000000;stroke-miterlimit:10;" x1="880.49" y1="2399.296" x2="880.49" y2="2658.28"/>
	<line style="fill:none;stroke:#000000;stroke-miterlimit:10;" x1="1897.004" y1="2399.296" x2="1897.004" y2="2658.28"/>
	<line style="fill:none;stroke:#000000;stroke-miterlimit:10;" x1="1897.004" y1="1726.195" x2="1897.004" y2="2349.907"/>
	<line style="fill:none;stroke:#000000;stroke-miterlimit:10;" x1="1899.043" y1="1033.518" x2="1899.043" y2="1676.805"/>
	<line style="fill:none;stroke:#000000;stroke-miterlimit:10;" x1="1899.043" y1="730.524" x2="1899.043" y2="984.129"/>
	<line style="fill:none;stroke:#000000;stroke-miterlimit:10;" x1="1737.725" y1="2349.907" x2="1737.672" y2="2399.283"/>
	<line style="fill:none;stroke:#000000;stroke-miterlimit:10;" x1="1039.812" y1="1669.707" x2="1039.812" y2="1719.097"/>
	<line style="fill:none;stroke:#000000;stroke-miterlimit:10;" x1="1739.721" y1="1676.805" x2="1739.721" y2="1726.195"/>
	<line style="fill:none;stroke:#000000;stroke-miterlimit:10;" x1="0" y1="1246.33" x2="769.409" y2="1246.33"/>
	<line style="fill:none;stroke:#000000;stroke-miterlimit:10;" x1="0" y1="1133.072" x2="769.729" y2="1133.072"/>
	<line style="fill:none;stroke:#000000;stroke-miterlimit:10;" x1="2007.766" y1="1246.33" x2="2776.089" y2="1246.33"/>
	<line style="fill:none;stroke:#000000;stroke-miterlimit:10;" x1="2007.766" y1="1133.072" x2="2776.089" y2="1133.072"/>
	<line style="fill:none;stroke:#000000;stroke-miterlimit:10;" x1="2007.766" y1="2094.679" x2="2776.089" y2="2094.679"/>
	<line style="fill:none;stroke:#000000;stroke-miterlimit:10;" x1="2007.766" y1="1981.422" x2="2776.089" y2="1981.422"/>
	<line style="fill:none;stroke:#000000;stroke-miterlimit:10;" x1="0" y1="2094.679" x2="769.149" y2="2094.679"/>
	<line style="fill:none;stroke:#000000;stroke-miterlimit:10;" x1="0" y1="1981.422" x2="769.409" y2="1981.422"/>
	<line style="fill:none;stroke:#000000;stroke-miterlimit:10;" x1="1335.638" y1="0" x2="1335.638" y2="592.989"/>
	<line style="fill:none;stroke:#000000;stroke-miterlimit:10;" x1="1444.362" y1="0" x2="1444.362" y2="593.644"/>
	<line style="fill:none;stroke:#000000;stroke-miterlimit:10;" x1="1334.386" y1="2796.471" x2="1334.386" y2="3401.57"/>
	<line style="fill:none;stroke:#000000;stroke-miterlimit:10;" x1="1443.109" y1="2795.815" x2="1443.109" y2="3401.57"/>
	<line style="fill:none;stroke:#000000;stroke-miterlimit:10;" x1="880.49" y1="2349.907" x2="1039.875" y2="2349.907"/>
	<line style="fill:none;stroke:#000000;stroke-miterlimit:10;" x1="880.49" y1="2399.296" x2="1039.823" y2="2399.296"/>
	<line style="fill:none;stroke:#000000;stroke-miterlimit:10;" x1="1039.875" y1="2349.907" x2="1039.823" y2="2399.283"/>
	<line style="fill:none;stroke:#000000;stroke-miterlimit:10;" x1="880.49" y1="984.129" x2="1039.812" y2="984.129"/>
	<line style="fill:none;stroke:#000000;stroke-miterlimit:10;" x1="880.49" y1="1033.518" x2="1039.812" y2="1033.518"/>
	<line style="fill:none;stroke:#000000;stroke-miterlimit:10;" x1="1039.812" y1="984.129" x2="1039.812" y2="1033.519"/>
	<line style="fill:none;stroke:#000000;stroke-miterlimit:10;" x1="1739.721" y1="984.129" x2="1899.043" y2="984.129"/>
	<line style="fill:none;stroke:#000000;stroke-miterlimit:10;" x1="1739.721" y1="1033.519" x2="1899.043" y2="1033.519"/>
	<line style="fill:none;stroke:#000000;stroke-miterlimit:10;" x1="1739.721" y1="984.129" x2="1739.721" y2="1033.519"/>
</g>
<g id="Livello_4">
</g>
<g id="Livello_3">
	<line style="fill:none;stroke:#000000;stroke-miterlimit:10;" x1="769.729" y1="1133.072" x2="769.729" y2="592.989"/>
	<line style="fill:none;stroke:#000000;stroke-miterlimit:10;" x1="1443.109" y1="2795.815" x2="2007.766" y2="2795.815"/>
	<line style="fill:none;stroke:#000000;stroke-miterlimit:10;" x1="2007.766" y1="593.644" x2="2007.766" y2="1133.072"/>
	<line style="fill:none;stroke:#000000;stroke-miterlimit:10;" x1="769.149" y1="2796.471" x2="1334.386" y2="2796.471"/>
	<line style="fill:none;stroke:#000000;stroke-miterlimit:10;" x1="1335.638" y1="592.989" x2="769.729" y2="592.989"/>
	<line style="fill:none;stroke:#000000;stroke-miterlimit:10;" x1="2007.766" y1="593.644" x2="1444.362" y2="593.644"/>
	<line style="fill:none;stroke:#000000;stroke-miterlimit:10;" x1="2007.766" y1="1246.33" x2="2007.766" y2="1981.422"/>
	<line style="fill:none;stroke:#000000;stroke-miterlimit:10;" x1="2007.766" y1="2094.679" x2="2007.766" y2="2795.815"/>
	<line style="fill:none;stroke:#000000;stroke-miterlimit:10;" x1="769.409" y1="1981.422" x2="769.409" y2="1246.33"/>
	<line style="fill:none;stroke:#000000;stroke-miterlimit:10;" x1="769.149" y1="2796.471" x2="769.149" y2="2094.679"/>
	<line style="fill:none;stroke:#000000;stroke-miterlimit:10;" x1="0" y1="1246.33" x2="0" y2="1133.072"/>
	<line style="fill:none;stroke:#000000;stroke-miterlimit:10;" x1="0" y1="2094.679" x2="0" y2="1981.422"/>
	<line style="fill:none;stroke:#000000;stroke-miterlimit:10;" x1="2776.089" y1="1981.422" x2="2776.089" y2="2094.679"/>
	<line style="fill:none;stroke:#000000;stroke-miterlimit:10;" x1="2776.089" y1="1133.072" x2="2776.089" y2="1246.33"/>
	<line style="fill:none;stroke:#000000;stroke-miterlimit:10;" x1="1444.362" y1="0" x2="1335.638" y2="0"/>
	<line style="fill:none;stroke:#000000;stroke-miterlimit:10;" x1="1334.386" y1="3401.57" x2="1443.109" y2="3401.57"/>
</g>
<g id="casa1">
</g>
<g id="casa2">
</g>
<g id="casa3">
</g>
</svg>
